<svg id="Layer_1" data-name="Layer 1" xmlns="http://www.w3.org/2000/svg" viewBox="0 0 300 90.6"><defs><style>.cls-1,.cls-3{fill:#ec2427;}.cls-1,.cls-2{fill-rule:evenodd;}.cls-2{fill:#fff;}.cls-4{fill:#231f20;}.cls-5{fill:none;}</style></defs><path class="cls-1" d="M147.63,46a2.53,2.53,0,1,0-2.52,2.53A2.52,2.52,0,0,0,147.63,46"/><path class="cls-1" d="M188.76,46a2.53,2.53,0,1,0-2.53,2.53A2.53,2.53,0,0,0,188.76,46"/><path class="cls-2" d="M98.71,41V38.42a.3.3,0,0,0-.19-.26,11.14,11.14,0,0,0-3-.29c-2.55,0-4.3,1.29-4.3,3.12,0,1.62,1.14,2.64,2.53,3.53,2.58,1.68,3.12,2.51,3.12,3.73a2.29,2.29,0,0,1-2.27,2.32c-1.58,0-2.63-1.31-2.94-3h-.5v2.81a.27.27,0,0,0,.13.26,9.14,9.14,0,0,0,3.51.59c2.64,0,4.89-1.22,4.89-3.49,0-1.4-.59-2.44-2.47-3.86s-3.26-2.18-3.26-3.47a1.74,1.74,0,0,1,1.8-1.88c1.46,0,2.14,1.25,2.47,2.41Z"/><path class="cls-2" d="M112,50.52l-.11-.61c-.93.29-1.22-.3-1.22-1.61V41.6l0,0a9.28,9.28,0,0,1-3.86.78v.57c1,0,1.44.13,1.44,1.05v2.46c0,2.9-.79,3.56-2,3.56-1.39,0-1.55-1.11-1.55-2.49V41.6l0,0a9.28,9.28,0,0,1-3.84.78v.57c.94,0,1.42.13,1.42,1.05v4c0,1.83.5,3.27,2.57,3.27a3.68,3.68,0,0,0,1.88-.5l1.57-.87a2.4,2.4,0,0,0,.35,1.37Z"/><path class="cls-2" d="M113.33,50.74a7.7,7.7,0,0,0,2.78.5c1.76,0,3.66-.69,3.66-2.73,0-.84-.24-1.59-1.75-2.74s-2.26-1.57-2.26-2.32a1.11,1.11,0,0,1,1.2-1.19,2,2,0,0,1,1.77,1.67h.51v-2a10.32,10.32,0,0,0-2.55-.32c-1.81,0-3.25.87-3.25,2.37,0,1.08.42,1.6,2,2.73,1.44,1,2,1.44,2,2.4A1.43,1.43,0,0,1,116,50.54a2.27,2.27,0,0,1-2.13-2.07h-.49Z"/><path class="cls-2" d="M125,37.44a12,12,0,0,1-3.86.56v.57h.53c.82,0,.91.72.91,1.22v9.05a4.62,4.62,0,0,1-.08,1.12c-.07.34-.72.43-1.36.48V51h5.22v-.58c-.55,0-1.18-.14-1.25-.48a4.62,4.62,0,0,1-.08-1.12V46.46c0-2.5.67-3.72,2.24-3.72,1.42,0,1.59,1.3,1.59,2.57v3.53a4.62,4.62,0,0,1-.08,1.12c-.07.34-.7.43-1.22.48V51h5.19v-.58c-.64,0-1.29-.14-1.37-.48a5.26,5.26,0,0,1-.07-1.12v-4c0-1.92-.57-3.27-2.64-3.27a4.86,4.86,0,0,0-3.64,1.63V37.48Z"/><path class="cls-2" d="M137.86,41.56a9.31,9.31,0,0,1-3.86.78v.57c1,0,1.44.13,1.44,1.05v4.88a5.26,5.26,0,0,1-.07,1.12c-.08.34-.72.43-1.37.48V51h5.32v-.58c-.65,0-1.28-.14-1.35-.48a5.26,5.26,0,0,1-.07-1.12V41.6Zm-2.7-2.34a1.35,1.35,0,1,0,1.35-1.35,1.33,1.33,0,0,0-1.35,1.35"/><path class="cls-2" d="M154.93,44.52H156c1.47,0,2.78.79,2.78,3,0,1.84-.81,2.89-2.21,2.89s-1.65-.35-1.65-2.12Zm2,6.5c2.82,0,4.8-1.19,4.8-3.7,0-1.93-1.57-3.21-3.75-3.32v0c1.68-.35,2.88-1.42,2.88-3.06,0-2-1.66-2.81-4.25-2.81h-5.87v.57c.83.06,1.46.15,1.53.48a4.71,4.71,0,0,1,.08,1.13v8.57a4.62,4.62,0,0,1-.08,1.12c-.07.34-.7.43-1.53.48V51Zm-2-12.32h1c1.55,0,2.31.72,2.31,2.49,0,2.05-1.07,2.72-2,2.72h-1.28Z"/><path class="cls-2" d="M168.8,47.25c0,1.72-.82,2.59-1.89,2.59-.83,0-1.25-.69-1.25-1.52,0-1.74,1.29-2.18,3.14-2.77Zm3.78,3.27-.05-.61c-1,.29-1.28-.3-1.28-1.61V44.81c0-2.05-1.07-3.25-3.71-3.25a8.81,8.81,0,0,0-2.86.54.88.88,0,0,0-.61.7l-.24.87c-.06.22.06.29.19.37l.9.29c.15,0,.28,0,.33-.15.44-1,1-2,2-2s1.55,1.07,1.55,2.58l-2.64.89c-1.79.65-2.94,1.22-2.94,3a2.38,2.38,0,0,0,2.33,2.57,3.06,3.06,0,0,0,1.73-.52l1.54-1a3.18,3.18,0,0,0,.35,1.57Z"/><path class="cls-2" d="M177.51,41.6l0,0a9.31,9.31,0,0,1-3.86.78v.57c1,0,1.44.13,1.44,1.05v4.88A5.26,5.26,0,0,1,175,50c-.07.34-.72.43-1.37.48V51h5.5v-.58c-.83,0-1.46-.14-1.53-.48a5.26,5.26,0,0,1-.07-1.12V46.25c0-1.92.31-2.58.83-2.58a1.65,1.65,0,0,1,.74.18l.88.41c.21.09.34.2.5-.06l.5-.53a.49.49,0,0,0,.09-.54l-.59-1c-.28-.48-.55-.59-.83-.59a1.74,1.74,0,0,0-1.31.85l-.77,1.07h0Z"/><path class="cls-2" d="M196.06,38.81h1.29c1.28,0,2.18.68,2.18,2.68,0,1.73-.55,3.12-2.18,3.12h-1.29Zm-4.21-.15c.81.06,1.46.15,1.53.49a4.58,4.58,0,0,1,.08,1.12v8.57a4.66,4.66,0,0,1-.08,1.12c-.07.34-.72.43-1.53.48V51h5.82v-.58c-.82,0-1.46-.14-1.54-.48a5.31,5.31,0,0,1-.07-1.12V45.33h1.37C198.89,47.88,200,51,201.1,51h2.66v-.34a12.14,12.14,0,0,1-2.31-2.82L199.57,45a3.82,3.82,0,0,0,2.73-3.6c0-2.25-1.84-3.27-4-3.27h-6.5Z"/><path class="cls-2" d="M212.9,45.92V45.4c0-2.27-1.22-3.84-3.58-3.84a4.45,4.45,0,0,0-4.71,4.77A5.48,5.48,0,0,0,206.05,50a4.28,4.28,0,0,0,3.67,1.24h.65l2.53-1.41-.39-.66a4,4,0,0,1-2.27.79c-2.68,0-3.08-2.84-3.08-4Zm-5.74-.68c0-2.24,1-3,2-3a1.82,1.82,0,0,1,1.59,2c0,.78-.43,1-.76,1Z"/><path class="cls-2" d="M214.41,50.74a7.75,7.75,0,0,0,2.79.5c1.76,0,3.65-.69,3.65-2.73,0-.84-.23-1.59-1.75-2.74s-2.25-1.57-2.25-2.32a1.11,1.11,0,0,1,1.2-1.19,2,2,0,0,1,1.77,1.67h.5v-2a10.21,10.21,0,0,0-2.55-.32c-1.81,0-3.25.87-3.25,2.37,0,1.08.43,1.6,2,2.73,1.44,1,2,1.44,2,2.4a1.43,1.43,0,0,1-1.5,1.48,2.25,2.25,0,0,1-2.12-2.07h-.5Z"/><path class="cls-2" d="M228.77,42.17H226V39.09h-.7c-.57.33-1.21.68-1.77,1v2.05h-1.38v.94h1.4v5.21c0,2.38,1,2.92,2.47,2.92l2.83-.89-.2-.68a3.2,3.2,0,0,1-1.32.24c-1.44,0-1.33-1.74-1.33-2.77v-4h1.87l.94-.42Z"/><path class="cls-2" d="M235.34,47.25c0,1.72-.82,2.59-1.88,2.59-.83,0-1.26-.69-1.26-1.52,0-1.74,1.29-2.18,3.14-2.77Zm3.78,3.27-.05-.61c-1,.29-1.28-.3-1.28-1.61V44.81c0-2.05-1.07-3.25-3.71-3.25a8.86,8.86,0,0,0-2.86.54.88.88,0,0,0-.61.7l-.24.87c-.05.22.06.29.18.37l.91.29c.15,0,.28,0,.34-.15.44-1,1-2,2-2s1.55,1.07,1.55,2.58l-2.64.89c-1.79.65-2.93,1.22-2.93,3a2.37,2.37,0,0,0,2.32,2.57,3.12,3.12,0,0,0,1.74-.52l1.53-1a3.18,3.18,0,0,0,.35,1.57Z"/><path class="cls-2" d="M251.09,50.52l-.12-.61c-.92.29-1.22-.3-1.22-1.61V41.6l0,0a9.31,9.31,0,0,1-3.86.78v.57c1,0,1.44.13,1.44,1.05v2.46c0,2.9-.79,3.56-2,3.56-1.39,0-1.55-1.11-1.55-2.49V41.6l0,0a9.28,9.28,0,0,1-3.84.78v.57c.94,0,1.42.13,1.42,1.05v4c0,1.83.5,3.27,2.57,3.27a3.71,3.71,0,0,0,1.88-.5l1.57-.87a2.33,2.33,0,0,0,.35,1.37Z"/><path class="cls-2" d="M256.13,41.6l0,0a9.34,9.34,0,0,1-3.86.78v.57c1,0,1.44.13,1.44,1.05v4.88a4.62,4.62,0,0,1-.08,1.12c-.07.34-.71.43-1.36.48V51h5.5v-.58c-.83,0-1.46-.14-1.53-.48a5.26,5.26,0,0,1-.07-1.12V46.25c0-1.92.31-2.58.83-2.58a1.58,1.58,0,0,1,.73.18l.89.41c.2.09.33.2.5-.06l.5-.53a.49.49,0,0,0,.09-.54l-.59-1c-.28-.48-.55-.59-.83-.59a1.72,1.72,0,0,0-1.31.85l-.78,1.07h0Z"/><path class="cls-2" d="M265.93,47.25c0,1.72-.82,2.59-1.89,2.59-.83,0-1.25-.69-1.25-1.52,0-1.74,1.29-2.18,3.14-2.77Zm3.78,3.27,0-.61c-1,.29-1.28-.3-1.28-1.61V44.81c0-2.05-1.07-3.25-3.71-3.25a8.81,8.81,0,0,0-2.86.54.88.88,0,0,0-.61.7l-.24.87c0,.22.06.29.19.37l.9.29c.15,0,.28,0,.33-.15.45-1,1-2,2-2s1.55,1.07,1.55,2.58l-2.64.89c-1.79.65-2.94,1.22-2.94,3a2.38,2.38,0,0,0,2.33,2.57,3.06,3.06,0,0,0,1.73-.52l1.54-1a3.18,3.18,0,0,0,.35,1.57Z"/><path class="cls-2" d="M274.64,46.46c0-2.5.66-3.72,2.23-3.72s1.59,1.3,1.59,2.57v3.53a5.31,5.31,0,0,1-.07,1.12c-.08.34-.71.43-1.22.48V51h5.19v-.58c-.65,0-1.3-.14-1.37-.48a5.31,5.31,0,0,1-.07-1.12v-4c0-1.92-.57-3.27-2.64-3.27a4.83,4.83,0,0,0-3.64,1.63V41.6l0,0a9.31,9.31,0,0,1-3.86.78v.57c1,0,1.44.13,1.44,1.05v4.88a5.31,5.31,0,0,1-.07,1.12c-.08.34-.72.43-1.37.48V51H276v-.58c-.54,0-1.16-.14-1.24-.48a5.31,5.31,0,0,1-.07-1.12Z"/><path class="cls-2" d="M290.09,42.17h-2.81V39.09h-.69c-.58.33-1.23.68-1.78,1v2.05h-1.38v.94h1.4v5.21c0,2.38,1,2.92,2.47,2.92l2.83-.89-.2-.68a3.18,3.18,0,0,1-1.31.24c-1.45,0-1.34-1.74-1.34-2.77v-4h1.87l.94-.42Z"/><path class="cls-3" d="M7.62,46.06A38.23,38.23,0,1,1,45.84,84.28,38.23,38.23,0,0,1,7.62,46.06"/><path class="cls-4" d="M55.05,41.47a30.38,30.38,0,0,1-7,7.23,56.21,56.21,0,0,0,6.85.38,72.72,72.72,0,0,0,8.76-.53c-4-4-6.61-7.51-8.57-7.08m-3-3.68c-.18-.65-.75-1.15-.56-1.53,1.28-1.3,4.89-2.95,7.25-2.64v.06c-.79,3.19,3,9.37,7.54,14.49,8.26-1.35,13.11-3.8,13.59-4.25a.6.6,0,0,1,.45.58c-1,.79-5.93,3.17-13.14,4.66a36.13,36.13,0,0,0,7.12,6.12,1.07,1.07,0,0,1-.85,1,40.41,40.41,0,0,1-8.72-6.69,60,60,0,0,1-9.83.82c-3.32,0-6.27-.13-8.87-.36a39.94,39.94,0,0,1-9.16,4.24c-.54.13-1.2.15-1.36-.2a11.27,11.27,0,0,1,4.1-2.72c1,.32,2.76-.3,4.6-1.5-11-1.24-15.06-4.24-15.06-5.75s8.41-2.13,8.41-5.46c0-.9-1.32-2.27-4.05-2.27a18.42,18.42,0,0,0-4.95.63l-4,16.4a2,2,0,0,0,.05,1.31c.26.43-1.14,2-1.14,2l-.47-.46c-.34-.32-.23-.89-.17-1.28.2-1.34,1.09-5.67,1.46-10.06,0-.14,0-.35.05-.62,0-.5.06-1,.08-1.5-.05-2.65-1.29-3-2.3-3-2.35,0-3,1.61-3.53,2.31-.64.4-3.41.59-3.79-.77.65-1,4.33-3,9.08-4.59a4.7,4.7,0,0,0-1.22-2.13c.63-1.16,3.73-2.76,6.13-2.4a1.17,1.17,0,0,1,.7,1.23l-.49,2a30.31,30.31,0,0,1,5.45-.53c4.5,0,7.58,1.16,7.58,3s-5.13,3-5.13,4.82c0,1.43,1.79,4.42,9.32,5.74,3.29-2.8,6.32-7,5.88-10.62"/><rect class="cls-5" x="-49.92" width="183.91" height="104.86"/><path class="cls-3" d="M75.12,77.06a2.21,2.21,0,1,1-2.19,2.2,2.19,2.19,0,0,1,2.18-2.2Zm0,.34a1.87,1.87,0,0,0,0,3.73,1.87,1.87,0,0,0,0-3.73Zm-.41,3.14h-.39V78.09A4.35,4.35,0,0,1,75,78a1.36,1.36,0,0,1,.76.18.61.61,0,0,1,.22.51.6.6,0,0,1-.48.6v0c.22,0,.37.23.41.6a2,2,0,0,0,.16.6h-.41a1.77,1.77,0,0,1-.17-.62.45.45,0,0,0-.52-.43H74.7Zm0-1.36H75c.32,0,.59-.12.59-.42s-.15-.43-.59-.43l-.29,0Z"/></svg>